<?xml version="1.0" encoding="UTF-8"?>
<!DOCTYPE svg PUBLIC "-//W3C//DTD SVG 1.1//EN" "http://www.w3.org/Graphics/SVG/1.1/DTD/svg11.dtd">
<!-- Creator: CorelDRAW 2019 (64-Bit) -->
<svg xmlns="http://www.w3.org/2000/svg" xml:space="preserve" width="70mm" height="70mm" version="1.1" style="shape-rendering:geometricPrecision; text-rendering:geometricPrecision; image-rendering:optimizeQuality; fill-rule:evenodd; clip-rule:evenodd"
viewBox="0 0 7000 7000"
 xmlns:xlink="http://www.w3.org/1999/xlink">
 <defs>
  <style type="text/css">
   <![CDATA[
    .fil1 {fill:#4E008E;fill-rule:nonzero}
    .fil0 {fill:#4E008E;fill-rule:nonzero}
    .fil2 {fill:#FD6A02;fill-rule:nonzero}
   ]]>
  </style>
 </defs>
 <g id="Layer_x0020_1">
  <metadata id="CorelCorpID_0Corel-Layer"/>
  <g id="_1485647410160">
   <polygon class="fil0" points="102.02,4554.39 3482.33,2646.76 6881.32,4568.5 6881.32,5012.7 3482.32,3090.97 102.02,4998.6 "/>
   <polygon class="fil0" points="102.02,3285.16 3482.33,1377.53 6881.32,3299.27 6881.32,3743.47 3482.32,1821.74 102.02,3729.37 "/>
   <polygon class="fil1" points="102.02,2015.97 3482.33,108.34 6881.32,2030.08 6881.32,2474.29 3482.32,552.55 102.02,2460.18 "/>
   <g>
    <polygon class="fil2" points="102.02,5000.73 3482.33,6908.36 6881.32,4986.63 6881.32,4542.42 3482.32,6464.15 102.02,4556.52 "/>
    <polygon class="fil2" points="102.02,3731.5 3482.33,5639.13 6881.32,3717.4 6881.32,3273.19 3482.32,5194.93 102.02,3287.3 "/>
    <polygon class="fil2" points="102.02,2462.32 3482.33,4369.95 6881.32,2448.21 6881.32,2004 3482.32,3925.74 102.02,2018.11 "/>
   </g>
  </g>
 </g>
</svg>
