<?xml version="1.0" encoding="UTF-8"?>
<!DOCTYPE svg PUBLIC "-//W3C//DTD SVG 1.1//EN" "http://www.w3.org/Graphics/SVG/1.1/DTD/svg11.dtd">
<!-- Creator: CorelDRAW 2019 (64-Bit) -->
<svg xmlns="http://www.w3.org/2000/svg" xml:space="preserve" width="148mm" height="38mm" version="1.1" style="shape-rendering:geometricPrecision; text-rendering:geometricPrecision; image-rendering:optimizeQuality; fill-rule:evenodd; clip-rule:evenodd"
viewBox="0 0 14800 3800"
 xmlns:xlink="http://www.w3.org/1999/xlink">
 <defs>
  <style type="text/css">
   <![CDATA[
    .fil1 {fill:#4E008E;fill-rule:nonzero}
    .fil0 {fill:#4E008E;fill-rule:nonzero}
    .fil2 {fill:#FD6A02;fill-rule:nonzero}
   ]]>
  </style>
 </defs>
 <g id="Layer_x0020_1">
  <metadata id="CorelCorpID_0Corel-Layer"/>
  <g id="_1485448640368">
   <g>
    <polygon class="fil0" points="884.83,2457.83 2660.5,1455.75 4445.99,2465.24 4445.99,2698.58 2660.5,1689.09 884.83,2691.17 "/>
    <polygon class="fil0" points="884.83,1791.1 2660.5,789.03 4445.99,1798.51 4445.99,2031.85 2660.5,1022.37 884.83,2024.44 "/>
    <polygon class="fil1" points="884.83,1124.4 2660.5,122.33 4445.99,1131.81 4445.99,1365.15 2660.5,355.67 884.83,1357.74 "/>
    <g>
     <polygon class="fil2" points="884.83,2692.29 2660.5,3694.36 4445.99,2684.88 4445.99,2451.54 2660.5,3461.02 884.83,2458.95 "/>
     <polygon class="fil2" points="884.83,2025.56 2660.5,3027.64 4445.99,2018.16 4445.99,1784.81 2660.5,2794.3 884.83,1792.22 "/>
     <polygon class="fil2" points="884.83,1358.86 2660.5,2360.94 4445.99,1351.45 4445.99,1118.11 2660.5,2127.6 884.83,1125.52 "/>
    </g>
   </g>
   <g>
    <polygon class="fil0" points="5582.98,1379.84 5582.98,2595.23 5354.1,2595.23 5354.1,1379.84 4979.23,1379.84 4979.23,1184.5 5955.88,1184.5 5955.88,1379.84 "/>
    <polygon class="fil0" points="6131.18,2595.23 6131.18,1184.5 6918.41,1184.5 6918.41,1379.84 6360.04,1379.84 6360.04,1733.01 6918.41,1733.01 6918.41,1934.26 6360.04,1934.26 6360.04,2390.03 6918.41,2390.03 6918.41,2595.23 "/>
    <polygon class="fil0" points="7117.22,2595.23 7117.22,1184.5 7904.45,1184.5 7904.45,1379.84 7346.09,1379.84 7346.09,1733.01 7904.45,1733.01 7904.45,1934.26 7346.09,1934.26 7346.09,2390.03 7904.45,2390.03 7904.45,2595.23 "/>
    <polygon class="fil0" points="7973.61,2595.23 8691.8,1379.84 8093.96,1379.84 8093.96,1184.5 9044.32,1184.5 8332.7,2390.03 9052.86,2390.03 9052.86,2595.23 "/>
    <polygon class="fil0" points="9254.46,2595.23 9254.46,1184.5 10041.7,1184.5 10041.7,1379.84 9483.33,1379.84 9483.33,1733.01 10041.7,1733.01 10041.7,1934.26 9483.33,1934.26 9483.33,2390.03 10041.7,2390.03 10041.7,2595.23 "/>
    <path class="fil0" d="M10253.3 2595.23l0 -1465.97 896.41 861.9c24.34,24.32 48.99,50.3 74.32,77.93 24.99,27.62 51.3,58.87 78.92,93.39l0 -977.98 211.12 0 0 1465.97 -913.85 -878c-24.33,-24 -48.01,-49 -70.7,-75.3 -23.03,-26.31 -44.4,-53.93 -65.12,-82.86l0 980.92 -211.1 0z"/>
    <polygon class="fil0" points="12293.77,1379.84 12293.77,2595.23 12064.89,2595.23 12064.89,1379.84 11690.02,1379.84 11690.02,1184.5 12666.67,1184.5 12666.67,1379.84 "/>
    <path class="fil0" d="M13186.22 2595.23l0 -645.51 -475.51 -765.22 241.05 0 295.96 478.8c7.23,12.49 15.78,28.28 26.63,48.34 10.52,19.73 21.05,41.44 31.9,64.45 9.2,-22.36 18.73,-43.73 28.6,-63.47 9.87,-20.06 20.39,-38.14 31.24,-54.91l303.19 -473.21 229.21 0 -485.37 765.22 0 645.51 -226.9 0z"/>
   </g>
  </g>
 </g>
</svg>
